<svg width="63" height="79" viewBox="0 0 63 79" fill="none" xmlns="http://www.w3.org/2000/svg">
<g clip-path="url(#clip0_93_9)">
<mask id="mask0_93_9" style="mask-type:luminance" maskUnits="userSpaceOnUse" x="0" y="0" width="63" height="79">
<path d="M63 0H0V79H63V0Z" fill="white"/>
</mask>
<g mask="url(#mask0_93_9)">
<path d="M19.4924 65.9281C15.6165 62.4319 14.4851 55.0858 16.0999 49.7637C18.8998 53.1192 22.7793 54.1821 26.7977 54.7821C33.0013 55.708 39.0937 55.3617 44.8565 52.5636C45.5158 52.2433 46.125 51.8173 46.8454 51.3859C47.3861 52.934 47.5268 54.4969 47.338 56.0876C46.8787 59.9616 44.9251 62.9541 41.8177 65.2226C40.5752 66.1299 39.2604 66.941 37.9771 67.7966C34.0346 70.4261 32.9679 73.5094 34.4494 77.9945C34.4846 78.1037 34.5161 78.213 34.5957 78.4796C32.5828 77.5908 31.1124 76.2964 29.9921 74.5945C28.8088 72.7983 28.2458 70.8113 28.2162 68.6614C28.2014 67.6151 28.2014 66.5596 28.0588 65.5281C27.7107 63.0134 26.5144 61.8875 24.2608 61.8226C21.9479 61.756 20.1183 63.1671 19.6331 65.3892C19.5961 65.5596 19.5424 65.7281 19.4887 65.9262L19.4924 65.9281Z" fill="url(#paint0_linear_93_9)"/>
<path d="M0 51.3932C0 51.3932 10.5979 46.2433 21.2254 46.2433L29.2382 21.5069C29.5381 20.3106 30.4141 19.4977 31.4029 19.4977C32.3918 19.4977 33.2677 20.3106 33.5677 21.5069L41.5804 46.2433C54.1672 46.2433 62.8058 51.3932 62.8058 51.3932C62.8058 51.3932 44.8044 2.47586 44.7692 2.37772C44.2526 0.931458 43.3804 0 42.2045 0H20.6032C19.4273 0 18.5903 0.931458 18.0384 2.37772C17.9995 2.47401 0 51.3932 0 51.3932Z" fill="#17191E"/>
</g>
</g>
<defs>
<linearGradient id="paint0_linear_93_9" x1="-1" y1="64" x2="69.5" y2="64" gradientUnits="userSpaceOnUse">
<stop stop-color="#D83333"/>
<stop offset="1" stop-color="#F041FF"/>
</linearGradient>
<clipPath id="clip0_93_9">
<rect width="63" height="79" fill="white"/>
</clipPath>
</defs>
</svg>
