<svg width="150" height="150" viewBox="0 0 150 150" fill="none" xmlns="http://www.w3.org/2000/svg">
<path d="M146 105V35L81.1812 0V26.875L106.574 40.625C107.576 41.25 107.576 42.5 106.574 42.8125L76.5035 59.0625C75.5012 59.6875 74.4988 59.375 73.8306 59.0625L43.76 42.8125C42.7576 42.5 42.7576 40.9375 43.76 40.625L69.1529 26.875V0L4 35V105L28.7247 91.5625V64.0625C28.7247 63.125 30.0612 62.5 30.7294 62.8125L60.8 79.0625C61.8023 79.6875 62.1365 80.3125 62.1365 81.25V113.75C62.1365 114.688 60.8 115.312 60.1318 115L34.7388 101.25L10.0141 114.688L74.8329 150L139.652 115L114.927 101.562L89.5341 115.312C88.5318 115.938 87.5294 115.312 87.5294 114.062V81.5625C87.5294 80.625 88.1976 79.6875 88.8659 79.375L118.936 63.125C119.939 62.5 120.941 63.125 120.941 64.375V91.875L146 105Z" fill="#4C4C4C"/>
<path d="M74.8329 150L139.652 115L114.927 101.563L89.5341 115.312C88.5317 115.938 87.5294 115.312 87.5294 114.062V81.5625C87.5294 80.625 88.1976 79.6875 88.8658 79.375L118.936 63.125C119.939 62.5 120.941 63.125 120.941 64.375V91.875L145.666 105.312V35L74.8329 73.4375V150Z" fill="black"/>
<path d="M81.1812 0V26.875L106.574 40.625C107.576 41.25 107.576 42.5 106.574 42.8125L76.5035 59.0625C75.5012 59.6875 74.4988 59.375 73.8306 59.0625L43.76 42.8125C42.7577 42.5 42.7577 40.9375 43.76 40.625L69.1529 26.875V0L4 35L74.8329 73.4375L145.666 35L81.1812 0Z" fill="#808080"/>
<path d="M60.4659 115.312L35.0729 101.563L10.3482 115L75.1671 150V73.4375L4 35V105L28.7247 91.5625V64.0625C28.7247 63.125 30.0612 62.5 30.7294 62.8125L60.8 79.0625C61.8023 79.6875 62.1365 80.3125 62.1365 81.25V113.75C62.4706 115 61.4682 115.938 60.4659 115.312Z" fill="#4C4C4C"/>
</svg>
